<svg width="1200" height="630" viewBox="0 0 1200 630" xmlns="http://www.w3.org/2000/svg">
  <rect width="1200" height="630" fill="#080c10"/>

  <!-- Grid -->
  <g stroke="#00d4ff" stroke-width="0.4" opacity="0.05">
    <line x1="0" y1="40" x2="1200" y2="40"/><line x1="0" y1="80" x2="1200" y2="80"/><line x1="0" y1="120" x2="1200" y2="120"/>
    <line x1="0" y1="160" x2="1200" y2="160"/><line x1="0" y1="200" x2="1200" y2="200"/><line x1="0" y1="240" x2="1200" y2="240"/>
    <line x1="0" y1="280" x2="1200" y2="280"/><line x1="0" y1="320" x2="1200" y2="320"/><line x1="0" y1="360" x2="1200" y2="360"/>
    <line x1="0" y1="400" x2="1200" y2="400"/><line x1="0" y1="440" x2="1200" y2="440"/><line x1="0" y1="480" x2="1200" y2="480"/>
    <line x1="0" y1="520" x2="1200" y2="520"/><line x1="0" y1="560" x2="1200" y2="560"/><line x1="0" y1="600" x2="1200" y2="600"/>
    <line x1="40" y1="0" x2="40" y2="630"/><line x1="80" y1="0" x2="80" y2="630"/><line x1="120" y1="0" x2="120" y2="630"/>
    <line x1="160" y1="0" x2="160" y2="630"/><line x1="200" y1="0" x2="200" y2="630"/><line x1="240" y1="0" x2="240" y2="630"/>
    <line x1="280" y1="0" x2="280" y2="630"/><line x1="320" y1="0" x2="320" y2="630"/><line x1="360" y1="0" x2="360" y2="630"/>
    <line x1="400" y1="0" x2="400" y2="630"/><line x1="440" y1="0" x2="440" y2="630"/><line x1="480" y1="0" x2="480" y2="630"/>
    <line x1="520" y1="0" x2="520" y2="630"/><line x1="560" y1="0" x2="560" y2="630"/><line x1="600" y1="0" x2="600" y2="630"/>
    <line x1="640" y1="0" x2="640" y2="630"/><line x1="680" y1="0" x2="680" y2="630"/><line x1="720" y1="0" x2="720" y2="630"/>
    <line x1="760" y1="0" x2="760" y2="630"/><line x1="800" y1="0" x2="800" y2="630"/><line x1="840" y1="0" x2="840" y2="630"/>
    <line x1="880" y1="0" x2="880" y2="630"/><line x1="920" y1="0" x2="920" y2="630"/><line x1="960" y1="0" x2="960" y2="630"/>
    <line x1="1000" y1="0" x2="1000" y2="630"/><line x1="1040" y1="0" x2="1040" y2="630"/><line x1="1080" y1="0" x2="1080" y2="630"/>
    <line x1="1120" y1="0" x2="1120" y2="630"/><line x1="1160" y1="0" x2="1160" y2="630"/>
  </g>

  <!-- Top glow -->
  <ellipse cx="400" cy="-40" rx="460" ry="200" fill="#00d4ff" opacity="0.04"/>

  <!-- Left accent bar -->
  <rect x="0" y="0" width="4" height="630" fill="#00d4ff"/>
  <!-- Top accent bar -->
  <rect x="0" y="0" width="1200" height="3" fill="#00d4ff" opacity="0.5"/>

  <!-- Divider -->
  <line x1="720" y1="60" x2="720" y2="570" stroke="#1c2430" stroke-width="1"/>

  <!-- ── LEFT COLUMN ── -->

  <!-- Monospace breadcrumb -->
  <text x="60" y="100" font-family="monospace" font-size="12" fill="#00d4ff" letter-spacing="2" opacity="0.9">~/kndlcero · portfolio.js</text>

  <!-- Name block -->
  <text x="60" y="210" font-family="system-ui, sans-serif" font-size="68" font-weight="300" fill="#8892a0">Ken Audie</text>
  <text x="60" y="285" font-family="system-ui, sans-serif" font-size="68" font-weight="700" fill="#ffffff">Lucero.</text>

  <!-- Role pill -->
  <rect x="60" y="308" width="260" height="32" rx="16" fill="#0d1117" stroke="#1c2430" stroke-width="1"/>
  <circle cx="82" cy="324" r="5" fill="#00d4ff"/>
  <text x="97" y="329" font-family="monospace" font-size="12" fill="#00d4ff">Backend Engineer</text>

  <!-- Description lines -->
  <text x="60" y="376" font-family="system-ui, sans-serif" font-size="16" fill="#8892a0">CS junior · PUP · APIs · Compilers · Real-time Systems</text>
  <text x="60" y="402" font-family="system-ui, sans-serif" font-size="16" fill="#8892a0">President's List &amp; Dean's List · WCTP 2025 Contributor</text>

  <!-- Tech pills row -->
  <rect x="60"  y="428" width="50"  height="22" rx="4" fill="#0d1117" stroke="#1c2430" stroke-width="1"/>
  <text x="85"  y="443" font-family="monospace" font-size="11" fill="#8892a0" text-anchor="middle">Java</text>

  <rect x="118" y="428" width="32"  height="22" rx="4" fill="#0d1117" stroke="#1c2430" stroke-width="1"/>
  <text x="134" y="443" font-family="monospace" font-size="11" fill="#8892a0" text-anchor="middle">C</text>

  <rect x="158" y="428" width="60"  height="22" rx="4" fill="#0d1117" stroke="#1c2430" stroke-width="1"/>
  <text x="188" y="443" font-family="monospace" font-size="11" fill="#8892a0" text-anchor="middle">Python</text>

  <rect x="226" y="428" width="80"  height="22" rx="4" fill="#0d1117" stroke="#1c2430" stroke-width="1"/>
  <text x="266" y="443" font-family="monospace" font-size="11" fill="#8892a0" text-anchor="middle">TypeScript</text>

  <rect x="314" y="428" width="66"  height="22" rx="4" fill="#0d1117" stroke="#1c2430" stroke-width="1"/>
  <text x="347" y="443" font-family="monospace" font-size="11" fill="#8892a0" text-anchor="middle">FastAPI</text>

  <rect x="388" y="428" width="88"  height="22" rx="4" fill="#0d1117" stroke="#1c2430" stroke-width="1"/>
  <text x="432" y="443" font-family="monospace" font-size="11" fill="#8892a0" text-anchor="middle">PostgreSQL</text>

  <!-- Contact lines -->
  <text x="60" y="510" font-family="monospace" font-size="12" fill="#4a5568">github.com/kndlcero</text>
  <text x="60" y="532" font-family="monospace" font-size="12" fill="#4a5568">kenaudielucero@gmail.com</text>

  <!-- URL watermark -->
  <text x="60" y="596" font-family="monospace" font-size="11" fill="#1c2430" letter-spacing="1">kenaudielucero.vercel.app</text>

  <!-- ── RIGHT COLUMN ── -->
  <!-- Card 1: Projects -->
  <rect x="752" y="60"  width="400" height="110" rx="8" fill="#0d1117" stroke="#1c2430" stroke-width="1"/>
  <rect x="752" y="60"  width="3"   height="110" rx="1" fill="#00d4ff"/>
  <text x="776" y="92"  font-family="monospace" font-size="10" fill="#00d4ff" letter-spacing="2">PROJECTS</text>
  <text x="776" y="136" font-family="system-ui, sans-serif" font-size="42" font-weight="700" fill="#ffffff">7</text>
  <text x="834" y="136" font-family="system-ui, sans-serif" font-size="15" fill="#8892a0">built &amp; shipped</text>

  <!-- Card 2: Publication -->
  <rect x="752" y="186" width="400" height="110" rx="8" fill="#0d1117" stroke="#1c2430" stroke-width="1"/>
  <rect x="752" y="186" width="3"   height="110" rx="1" fill="#00d4ff"/>
  <text x="776" y="218" font-family="monospace" font-size="10" fill="#00d4ff" letter-spacing="2">PUBLICATION</text>
  <text x="776" y="258" font-family="system-ui, sans-serif" font-size="22" font-weight="700" fill="#ffffff">WCTP 2025</text>
  <text x="776" y="280" font-family="system-ui, sans-serif" font-size="13" fill="#8892a0">International workshop · Dec 2025</text>

  <!-- Card 3: Honors -->
  <rect x="752" y="312" width="400" height="110" rx="8" fill="#0d1117" stroke="#1c2430" stroke-width="1"/>
  <rect x="752" y="312" width="3"   height="110" rx="1" fill="#00d4ff"/>
  <text x="776" y="344" font-family="monospace" font-size="10" fill="#00d4ff" letter-spacing="2">ACADEMIC HONORS</text>
  <text x="776" y="382" font-family="system-ui, sans-serif" font-size="22" font-weight="700" fill="#ffffff">President's List</text>
  <text x="776" y="406" font-family="system-ui, sans-serif" font-size="13" fill="#8892a0">Every semester · 1st to 3rd year</text>

  <!-- Card 4: Status pill -->
  <rect x="752" y="438" width="400" height="56" rx="8" fill="#00d4ff" opacity="0.07" stroke="#00d4ff" stroke-width="1"/>
  <circle cx="788" cy="466" r="5" fill="#00d4ff"/>
  <circle cx="788" cy="466" r="9" fill="#00d4ff" opacity="0.2"/>
  <text x="808" y="471" font-family="monospace" font-size="13" fill="#00d4ff">open for internship · 2025</text>

  <!-- University label bottom right -->
  <text x="1152" y="596" font-family="monospace" font-size="11" fill="#1c2430" text-anchor="end">Polytechnic University of the Philippines</text>
</svg>
